<?xml version="1.0" encoding="UTF-8" standalone="no"?>
<!-- Created with Inkscape (http://www.inkscape.org/) -->

<svg
   width="64"
   height="32"
   viewBox="0 0 16.933334 8.4666667"
   version="1.1"
   id="svg5"
   inkscape:version="1.2.1 (9c6d41e, 2022-07-14)"
   sodipodi:docname="text-bubble.svg"
   inkscape:export-filename="text-bubble.png"
   inkscape:export-xdpi="768"
   inkscape:export-ydpi="768"
   xmlns:inkscape="http://www.inkscape.org/namespaces/inkscape"
   xmlns:sodipodi="http://sodipodi.sourceforge.net/DTD/sodipodi-0.dtd"
   xmlns="http://www.w3.org/2000/svg"
   xmlns:svg="http://www.w3.org/2000/svg">
  <sodipodi:namedview
     id="namedview7"
     pagecolor="#ffffff"
     bordercolor="#000000"
     borderopacity="0.25"
     inkscape:showpageshadow="2"
     inkscape:pageopacity="0.0"
     inkscape:pagecheckerboard="0"
     inkscape:deskcolor="#d1d1d1"
     inkscape:document-units="mm"
     showgrid="false"
     inkscape:zoom="13.021854"
     inkscape:cx="36.093171"
     inkscape:cy="18.200173"
     inkscape:window-width="1633"
     inkscape:window-height="896"
     inkscape:window-x="0"
     inkscape:window-y="38"
     inkscape:window-maximized="0"
     inkscape:current-layer="layer3"
     showguides="false">
    <inkscape:grid
       type="xygrid"
       id="grid355" />
  </sodipodi:namedview>
  <defs
     id="defs2" />
  <g
     inkscape:label="Original"
     inkscape:groupmode="layer"
     id="layer1"
     style="display:none">
    <rect
       style="display:inline;fill:#ffffff;fill-opacity:1;stroke:#000000;stroke-width:0.146;stroke-dasharray:none;stroke-opacity:1"
       id="rect191"
       width="12.7"
       height="4.2333336"
       x="2.1166666"
       y="2.1166666"
       rx="0.5"
       ry="0.5"
       inkscape:label="main-rect" />
    <path
       style="fill:#ffffff;fill-opacity:1;stroke:#000000;stroke-width:0.15591;stroke-linecap:butt;stroke-dasharray:none;stroke-opacity:1;paint-order:normal"
       d="M 7.7725585,2.3001994 8.4415485,0.26458333 9.0209514,2.3201546"
       id="path213"
       inkscape:label="pointy-top" />
  </g>
  <g
     inkscape:groupmode="layer"
     id="layer3"
     inkscape:label="top"
     style="display:inline">
    <path
       id="rect143"
       style="display:inline;fill:#ffffff;fill-opacity:1;stroke:#000000;stroke-width:0.146;stroke-dasharray:none;stroke-opacity:1"
       inkscape:label="top"
       d="M 8.4413452,0.26458333 7.8331136,2.1166667 H 2.6168945 c -0.2769997,0 -0.5002278,0.2232281 -0.5002278,0.5002278 V 5.8497721 C 2.1166667,6.1267719 2.3398948,6.35 2.6168945,6.35 H 14.316439 c 0.277,0 0.500228,-0.2232281 0.500228,-0.5002279 V 2.6168945 c 0,-0.2769997 -0.223228,-0.5002278 -0.500228,-0.5002278 H 8.9637939 Z" />
  </g>
  <g
     inkscape:groupmode="layer"
     id="layer2"
     inkscape:label="left"
     style="display:none">
    <path
       id="rect1327"
       style="display:inline;fill:#ffffff;fill-opacity:1;stroke:#000000;stroke-width:0.146;stroke-dasharray:none;stroke-opacity:1"
       inkscape:label="left"
       d="m 2.6168945,2.1166667 c -0.2769997,0 -0.5002278,0.2232281 -0.5002278,0.5002278 V 3.6829793 L 0.23771159,4.2333333 2.1166667,4.7836873 V 5.8497721 C 2.1166667,6.1267719 2.3398948,6.35 2.6168945,6.35 H 14.316439 c 0.277,0 0.500228,-0.2232281 0.500228,-0.5002279 V 2.6168945 c 0,-0.2769997 -0.223228,-0.5002278 -0.500228,-0.5002278 z" />
  </g>
  <g
     inkscape:groupmode="layer"
     id="g145"
     inkscape:label="bottom"
     style="display:none">
    <path
       id="path138"
       style="display:inline;fill:#ffffff;fill-opacity:1;stroke:#000000;stroke-width:0.15591;stroke-linecap:butt;stroke-dasharray:none;stroke-opacity:1;paint-order:normal"
       inkscape:label="bottom"
       d="m 2.6168945,2.1166667 c -0.2769997,0 -0.5002278,0.2232281 -0.5002278,0.5002278 V 5.8497721 C 2.1166667,6.1267719 2.3398948,6.35 2.6168945,6.35 H 7.8429321 L 8.4413452,8.1715942 8.955009,6.35 h 5.36143 c 0.277,0 0.500228,-0.2232281 0.500228,-0.5002279 V 2.6168945 c 0,-0.2769997 -0.223228,-0.5002278 -0.500228,-0.5002278 z" />
  </g>
  <g
     inkscape:groupmode="layer"
     id="g151"
     inkscape:label="right"
     style="display:none">
    <path
       id="rect147"
       style="display:inline;fill:#ffffff;fill-opacity:1;stroke:#000000;stroke-width:0.146;stroke-dasharray:none;stroke-opacity:1"
       inkscape:label="right"
       d="m 2.6168945,2.1166667 c -0.2769997,0 -0.5002278,0.2232281 -0.5002278,0.5002278 V 5.8497721 C 2.1166667,6.1267719 2.3398948,6.35 2.6168945,6.35 H 14.316439 c 0.277,0 0.500228,-0.2232281 0.500228,-0.5002279 V 4.7759359 L 16.66875,4.2333333 14.816667,3.6907308 V 2.6168945 c 0,-0.2769997 -0.223228,-0.5002278 -0.500228,-0.5002278 z" />
  </g>
</svg>
